PathFileType	4	(X/Y/Z)	C:/Users/opensim2020/Desktop/walking_exp_matlab/subject03_walking04_straight_02.trc																																																																																																																																																							
DataRate	CameraRate	NumFrames	NumMarkers	Units	OrigDataRate	OrigDataStartFrame	OrigNumFrames																																																																																																																																																			
100	100	5	51	mm	100	1637	259																																																																																																																																																			
Frame#	Time	LFHD			RFHD			LBHD			RBHD			C7			T10			CLAV			STRN			RBAK			LSHO			LUPA			LELB			LFRM			LWRA			LWRB			LFIN			RSHO			RUPA			RELB			RFRM			RWRA			RWRB			RFIN			LASI			RASI			LPSI			RPSI			LTHI			LKNE			LTIB			LANK			LHEE			LTOE			RTHI			RKNE			RTIB			RANK			RHEE			RTOE			*39			*40			*41			*42			*43			*44			*45			*46			*47			*48			*49			*50		
		X1	Y1	Z1	X2	Y2	Z2	X3	Y3	Z3	X4	Y4	Z4	X5	Y5	Z5	X6	Y6	Z6	X7	Y7	Z7	X8	Y8	Z8	X9	Y9	Z9	X10	Y10	Z10	X11	Y11	Z11	X12	Y12	Z12	X13	Y13	Z13	X14	Y14	Z14	X15	Y15	Z15	X16	Y16	Z16	X17	Y17	Z17	X18	Y18	Z18	X19	Y19	Z19	X20	Y20	Z20	X21	Y21	Z21	X22	Y22	Z22	X23	Y23	Z23	X24	Y24	Z24	X25	Y25	Z25	X26	Y26	Z26	X27	Y27	Z27	X28	Y28	Z28	X29	Y29	Z29	X30	Y30	Z30	X31	Y31	Z31	X32	Y32	Z32	X33	Y33	Z33	X34	Y34	Z34	X35	Y35	Z35	X36	Y36	Z36	X37	Y37	Z37	X38	Y38	Z38	X39	Y39	Z39	X40	Y40	Z40	X41	Y41	Z41	X42	Y42	Z42	X43	Y43	Z43	X44	Y44	Z44	X45	Y45	Z45	X46	Y46	Z46	X47	Y47	Z47	X48	Y48	Z48	X49	Y49	Z49	X50	Y50	Z50	X51	Y51	Z51
																																																																																																																																																										
98	0.97	-514.65668	1628.38464	-1655.38269	-530.42188	1636.28271	-1523.1864	-640.48767	1576.03796	-1663.13806	-650.99719	1584.52295	-1532.96167	-670.74872	1425.09436	-1605.97876	-708.59717	1112.77515	-1609.04431	-549.08832	1347.86768	-1591.38806	-507.96967	1182.2605	-1595.70874	-734.96161	1249.98547	-1516.43164	-574.53943	1386.06897	-1750.10181	-554.25659	1191.92041	-1820.96594	-528.40125	1070.87805	-1828.72375	-485.58984	948.30615	-1819.60571	-459.80884	833.89374	-1783.60718	-466.70325	837.65662	-1839.20313	-439.62238	758.86749	-1825.25647	-612.66425	1370.06348	-1437.83447	-613.82391	1144.45959	-1372.58276	-594.18408	1032.77368	-1362.94849	-572.75433	897.67218	-1364.59973	-536.98999	805.62134	-1402.00671	-569.6734	797.51123	-1359.52539	-536.23352	732.93658	-1366.91479	-536.68225	948.55682	-1717.97559	-549.14642	945.65167	-1479.72559	-699.98145	973.43243	-1674.55676	-706.72961	973.65027	-1525.6571	-594.89386	646.0528	-1752.45972	-596.5965	469.43134	-1708.61804	-652.22882	281.10916	-1710.32043	-677.92377	73.44025	-1666.59631	-719.01678	39.01754	-1630.77527	-525.29608	34.78873	-1641.73523	-540.76764	651.70654	-1436.79907	-477.62579	483.57858	-1463.56506	-595.44116	334.21399	-1460.77734	-730.70715	166.55099	-1501.8114	-785.71863	161.25102	-1554.98096	-637.61456	61.43893	-1517.23059	-605.26746	1682.78906	-1609.38245	NaN	NaN	NaN	NaN	NaN	NaN	NaN	NaN	NaN	NaN	NaN	NaN	NaN	NaN	NaN	NaN	NaN	NaN	NaN	NaN	NaN	NaN	NaN	NaN	NaN	NaN	NaN	NaN	NaN	NaN	NaN	NaN	NaN
99	0.98	-504.72049	1627.96008	-1654.84814	-520.51477	1635.62012	-1522.67615	-630.74994	1576.16943	-1662.87927	-641.28491	1584.26807	-1532.51221	-661.43793	1424.65088	-1605.82471	-699.20776	1112.36853	-1609.34985	-540.01678	1347.53589	-1591.5127	-498.65552	1181.86389	-1596.26111	-725.85992	1249.38647	-1516.86328	-565.55188	1386.37537	-1750.03235	-543.26062	1193.01477	-1821.63562	-514.95752	1072.625	-1829.4989	-469.12634	951.25006	-1819.85291	-440.29562	837.64795	-1783.27869	-447.34879	841.03461	-1838.85852	-417.55582	763.48285	-1824.95544	-603.99603	1369.41797	-1437.92383	-607.45209	1143.87561	-1372.48889	-588.93127	1032.06409	-1362.40881	-568.12439	896.78638	-1364.27588	-532.31262	804.67322	-1401.2605	-565.87598	796.52631	-1359.34326	-532.60828	731.61493	-1366.59741	-527.52203	947.99756	-1718.55481	-539.4964	945.34821	-1480.25781	-690.81714	972.96558	-1674.63452	-697.14227	973.24591	-1525.72839	-588.24762	645.5589	-1752.57861	-591.9765	468.94775	-1708.85999	-649.69843	281.18588	-1710.16858	-677.64124	73.81834	-1666.43335	-718.79431	39.65864	-1630.55713	-525.13141	34.77077	-1641.78711	-528.3797	652.51642	-1437.08899	-462.30173	485.42453	-1464.84778	-574.40228	331.06522	-1462.00769	-702.71869	157.68802	-1503.04956	-757.56079	149.69373	-1556.17114	-603.85516	58.52982	-1518.84766	-596.54578	1686.35681	-1616.23389	NaN	NaN	NaN	NaN	NaN	NaN	NaN	NaN	NaN	NaN	NaN	NaN	NaN	NaN	NaN	NaN	NaN	NaN	NaN	NaN	NaN	NaN	NaN	NaN	NaN	NaN	NaN	NaN	NaN	NaN	NaN	NaN	NaN
100	0.99	-494.73227	1627.44617	-1654.34241	-510.53812	1634.797	-1522.19702	-621.21484	1576.34082	-1662.92419	-631.52148	1584.005	-1532.15417	-652.31622	1424.26709	-1605.72217	-689.88599	1111.90161	-1609.65454	-530.85614	1347.12256	-1591.65381	-489.50851	1181.45068	-1596.82886	-716.64612	1248.604	-1517.29065	-556.6286	1386.61255	-1749.92395	-532.30212	1193.95068	-1822.29602	-501.81509	1074.07556	-1830.31396	-452.75748	954.05481	-1820.20483	-420.84506	841.58258	-1782.97424	-428.12537	844.39264	-1838.47864	-395.80112	768.16992	-1824.54321	-595.10767	1368.64526	-1437.97095	-600.83014	1143.17847	-1372.32727	-583.37286	1031.22986	-1361.99683	-563.31909	895.79498	-1363.8822	-527.67267	803.53259	-1400.54297	-561.74036	795.4563	-1359.27917	-528.88898	730.00867	-1366.24133	-518.71002	947.38519	-1719.14685	-529.61041	945.01709	-1480.76965	-681.77521	972.40265	-1674.63135	-687.57611	972.69977	-1525.80457	-581.63153	645.07184	-1752.66089	-587.47363	468.49973	-1709.09363	-647.02979	281.3248	-1710.12476	-677.3299	74.22011	-1666.29211	-718.65485	40.24168	-1630.34619	-524.73566	34.82623	-1641.72998	-515.70367	653.12115	-1437.38904	-447.56772	487.05917	-1465.98938	-553.51361	327.63077	-1463.1427	-673.80957	148.56175	-1504.57483	-728.51624	137.72316	-1557.36353	-569.4101	55.61005	-1520.58618	NaN	NaN	NaN	NaN	NaN	NaN	NaN	NaN	NaN	NaN	NaN	NaN	NaN	NaN	NaN	NaN	NaN	NaN	NaN	NaN	NaN	NaN	NaN	NaN	NaN	NaN	NaN	NaN	NaN	NaN	NaN	NaN	NaN	NaN	NaN	NaN
101	1	-484.71594	1626.83521	-1653.7334	-500.57458	1633.88062	-1521.59229	-611.22119	1576.19531	-1662.13586	-621.73431	1583.64355	-1531.78528	-643.12305	1423.73352	-1605.55298	-680.4812	1111.31104	-1609.86462	-521.6615	1346.56067	-1591.73633	-480.28	1180.98132	-1597.33472	-707.43726	1247.7063	-1517.66553	-547.63318	1386.56433	-1749.7406	-521.37915	1194.71265	-1822.91187	-488.89478	1075.58826	-1831.45374	-436.64865	956.86963	-1820.58923	-400.52133	845.92859	-1782.80579	-409.18976	847.8111	-1838.09692	-374.53116	772.84717	-1823.96057	-586.24835	1367.81079	-1437.88989	-593.992	1142.43616	-1372.12415	-577.52002	1030.31165	-1361.64197	-558.30145	894.77313	-1363.56543	-523.20471	802.02289	-1400.3783	-557.49194	794.42212	-1358.9873	-525.34912	728.50995	-1366.20569	-509.72455	946.70862	-1719.72034	-519.6842	944.67871	-1480.99487	-672.75385	971.78198	-1674.60107	-678.06134	972.02161	-1525.85876	-575.01196	644.44495	-1752.50342	-582.98462	468.03314	-1709.25635	-644.43817	281.43936	-1710.05847	-676.95691	74.60824	-1666.16125	-718.35199	40.55349	-1629.98523	-524.80548	35.12455	-1641.96118	-503.64688	653.67157	-1437.61255	-433.57651	488.48755	-1466.88135	-532.65155	324.01825	-1464.19604	-644.23438	139.51712	-1506.12585	-698.39435	125.42595	-1558.85962	-534.94281	53.07821	-1522.1897	NaN	NaN	NaN	NaN	NaN	NaN	NaN	NaN	NaN	NaN	NaN	NaN	NaN	NaN	NaN	NaN	NaN	NaN	NaN	NaN	NaN	NaN	NaN	NaN	NaN	NaN	NaN	NaN	NaN	NaN	NaN	NaN	NaN	NaN	NaN	NaN
102	1.01	-474.64307	1626.14551	-1653.1969	-490.6275	1632.85852	-1520.97754	-601.45654	1576.18286	-1661.87183	-611.93634	1583.23303	-1531.34448	-633.80981	1423.19092	-1605.354	-671.10913	1110.698	-1610.0647	-512.4035	1345.89648	-1591.78699	-470.99249	1180.30591	-1597.7843	-698.23322	1246.82837	-1518.11255	-538.71741	1386.37634	-1749.58179	-510.4772	1195.39026	-1823.55713	-476.16779	1076.84607	-1832.34741	-420.72464	959.70404	-1821.05896	-381.302	850.12689	-1782.52148	-390.48874	851.27313	-1837.77722	-353.43488	777.5119	-1823.33167	-577.08929	1366.72766	-1437.80554	-586.77509	1141.57922	-1371.99768	-571.39453	1029.37732	-1361.33582	-552.99725	893.64362	-1363.27002	-517.72437	801.01471	-1399.31885	-553.01709	793.22992	-1358.87561	-521.8053	726.88611	-1366.13147	-500.77469	945.96466	-1720.42334	-510.29047	944.27533	-1481.40137	-663.71893	971.03589	-1674.54089	-668.51715	971.28821	-1525.88184	-568.87457	643.96771	-1752.72534	-578.22626	467.53653	-1709.03149	-641.92542	281.55365	-1709.79541	-676.87177	75.04706	-1666.04248	-718.25635	41.18108	-1629.78149	-524.58008	34.76708	-1641.82349	-491.24045	654.17725	-1437.48706	-420.23422	489.6041	-1467.42944	-512.12067	320.34097	-1465.03845	-614.11914	130.31941	-1507.72729	-667.71875	113.38351	-1560.45154	-500.11713	50.70344	-1523.80652	NaN	NaN	NaN	NaN	NaN	NaN	NaN	NaN	NaN	NaN	NaN	NaN	NaN	NaN	NaN	NaN	NaN	NaN	NaN	NaN	NaN	NaN	NaN	NaN	NaN	NaN	NaN	NaN	NaN	NaN	NaN	NaN	NaN	NaN	NaN	NaN
